<svg width="1920" height="1080" viewBox="0 0 1920 1080" xmlns="http://www.w3.org/2000/svg"><rect width="1920" height="1080" fill="#56997c"/><path d="M 0,1080 C 0,1080 0,180 0,180 C 115.4974358974359,165.85897435897436 230.9948717948718,151.71794871794873 353,149 C 475.0051282051282,146.28205128205127 603.5179487179487,154.98717948717947 689,153 C 774.4820512820513,151.01282051282053 816.9333333333334,138.33333333333334 917,148 C 1017.0666666666666,157.66666666666666 1174.748717948718,189.6794871794872 1301,192 C 1427.251282051282,194.3205128205128 1522.071794871795,166.94871794871793 1620,160 C 1717.928205128205,153.05128205128207 1818.9641025641026,166.52564102564105 1920,180 C 1920,180 1920,1080 1920,1080 Z" fill="#e4f9f5" opacity="0.09999999999999999"/><path d="M 0,1080 C 0,1080 0,360 0,360 C 115.92307692307693,374.92820512820515 231.84615384615387,389.85641025641024 323,385 C 414.15384615384613,380.14358974358976 480.53846153846155,355.5025641025641 582,354 C 683.4615384615385,352.4974358974359 820,374.1333333333334 946,355 C 1072,335.8666666666666 1187.4615384615386,275.9641025641025 1291,292 C 1394.5384615384614,308.0358974358975 1486.1538461538462,400.01025641025643 1589,424 C 1691.8461538461538,447.98974358974357 1805.923076923077,403.99487179487176 1920,360 C 1920,360 1920,1080 1920,1080 Z" fill="#e4f9f5" opacity="0.19999999999999998"/><path d="M 0,1080 C 0,1080 0,540 0,540 C 79.98974358974357,510.7384615384615 159.97948717948714,481.476923076923 287,477 C 414.02051282051286,472.523076923077 588.071794871795,492.8307692307693 696,494 C 803.928205128205,495.1692307692307 845.7333333333332,477.19999999999993 924,491 C 1002.2666666666668,504.80000000000007 1116.9948717948719,550.3692307692309 1223,578 C 1329.0051282051281,605.6307692307691 1426.2871794871796,615.3230769230769 1541,606 C 1655.7128205128204,596.6769230769231 1787.85641025641,568.3384615384616 1920,540 C 1920,540 1920,1080 1920,1080 Z" fill="#e4f9f5" opacity="0.3"/><path d="M 0,1080 C 0,1080 0,720 0,720 C 117.25128205128203,723.3435897435897 234.50256410256407,726.6871794871795 346,729 C 457.49743589743593,731.3128205128205 563.2410256410257,732.5948717948718 663,724 C 762.7589743589743,715.4051282051282 856.5333333333333,696.9333333333333 968,709 C 1079.4666666666667,721.0666666666667 1208.6256410256412,763.671794871795 1322,774 C 1435.3743589743588,784.328205128205 1532.9641025641024,762.3794871794871 1630,748 C 1727.0358974358976,733.6205128205129 1823.517948717949,726.8102564102564 1920,720 C 1920,720 1920,1080 1920,1080 Z" fill="#e4f9f5" opacity="0.39999999999999997"/><path d="M 0,1080 C 0,1080 0,900 0,900 C 96.39743589743588,885.6128205128205 192.79487179487177,871.225641025641 298,871 C 403.20512820512823,870.774358974359 517.2179487179486,884.7102564102564 626,881 C 734.7820512820514,877.2897435897436 838.3333333333335,855.9333333333333 953,867 C 1067.6666666666665,878.0666666666667 1193.448717948718,921.5564102564103 1312,946 C 1430.551282051282,970.4435897435897 1541.871794871795,975.8410256410256 1642,965 C 1742.128205128205,954.1589743589744 1831.0641025641025,927.0794871794872 1920,900 C 1920,900 1920,1080 1920,1080 Z" fill="#e4f9f5" opacity="0.49999999999999994"/></svg>